<svg xmlns="http://www.w3.org/2000/svg" viewBox="0 0 128 128">
  <defs>
    <linearGradient id="bg" x1="0" y1="0" x2="1" y2="1">
      <stop offset="0" stop-color="#0fafba"/>
      <stop offset="1" stop-color="#d4af37"/>
    </linearGradient>
    <filter id="soft" x="-20%" y="-20%" width="140%" height="140%">
      <feGaussianBlur stdDeviation="1.2" result="b"/>
      <feMerge>
        <feMergeNode in="b"/>
        <feMergeNode in="SourceGraphic"/>
      </feMerge>
    </filter>
  </defs>

  <rect width="128" height="128" rx="28" fill="#020817"/>
  <rect x="10" y="10" width="108" height="108" rx="24" fill="url(#bg)" opacity="0.18"/>

  <!-- simple cat head -->
  <path
    d="M34 46c0-10 8-18 18-18h3l9-10 9 10h3c10 0 18 8 18 18v22c0 20-16 36-36 36S34 88 34 68V46Z"
    fill="#f7fbff"
    opacity="0.92"
    filter="url(#soft)"
  />
  <path d="M51 72c4 4 22 4 26 0" stroke="#020817" stroke-width="6" stroke-linecap="round" opacity="0.65"/>
  <circle cx="52" cy="62" r="5" fill="#020817" opacity="0.7"/>
  <circle cx="76" cy="62" r="5" fill="#020817" opacity="0.7"/>
</svg>

