<svg xmlns="http://www.w3.org/2000/svg" viewBox="0 0 640 240" role="img" aria-label="Tabby">
  <rect x="0" y="0" width="640" height="240" rx="80" fill="#39f2b4"/>
  <g fill="#0b0b0b">
    <!-- stylized t -->
    <path d="M96 70c0-18 14-32 32-32h58v36h-34c-7 0-12 5-12 12v18h46v34h-46v70h-44V138H66v-34h30V70Z"/>
    <!-- abby -->
    <path d="M245 86c0-38 30-62 70-62 41 0 70 24 70 62v118h-44v-18c-8 14-24 24-48 24-29 0-48-18-48-44 0-30 24-44 60-44h34v-12c0-16-10-24-26-24-14 0-24 6-27 18l-41-10Zm94 88v-24h-28c-14 0-22 5-22 14 0 10 8 16 20 16 18 0 30-10 30-22Z"/>
    <path d="M409 24h44v72c10-14 26-22 48-22 38 0 66 30 66 74 0 44-28 74-66 74-22 0-38-9-48-24v18h-44V24Zm78 158c20 0 34-14 34-34s-14-34-34-34-34 14-34 34 14 34 34 34Z"/>
    <path d="M566 86h46l34 116 34-116h46l-58 168c-12 34-32 50-70 50h-22v-38h18c14 0 22-6 26-18l2-6-62-156Z"/>
  </g>
</svg>

